<svg xmlns="http://www.w3.org/2000/svg" xmlns:xlink="http://www.w3.org/1999/xlink" viewBox="0 0 110.4 50.9"><path fill="#FFFFFF" d="M85.7,1.3C72.9,1.4,62.5,12.2,62.5,25.4v0.1h4.6v-0.1c0-5.4,2.1-10.2,5.5-13.8C76,8.1,80.7,6,86,6h0c9.6,0,17.6,7.4,18.7,17c0,0,0,0.1,0,0.1c0.1,1.2,1.1,2.1,2.3,2.1c0.1,0,0.2,0,0.3,0c1.1-0.1,2-1.2,2-2.3c0-0.1,0-0.2,0-0.3c0-0.1,0-0.1,0-0.2c-1.4-11.8-11.2-21-23-21.1H85.7z"/><linearGradient id="SVGID_1_" gradientUnits="userSpaceOnUse" x1="62.5473" y1="37.5554" x2="109.2373" y2="37.5554"><stop offset="0" style="stop-color:#FFFFFF"/><stop offset="0.1622" style="stop-color:#FFFFFF"/><stop offset="1" style="stop-color:#FFFFFF;stop-opacity:0.2"/></linearGradient><path fill="url(#SVGID_1_)" d="M85.7,49.7c-12.8-0.1-23.2-10.9-23.2-24.1v-0.1h4.6v0.1c0,5.4,2.1,10.2,5.5,13.8C76,42.8,80.7,45,86,45h0c9.6,0,17.6-7.4,18.7-17c0,0,0-0.1,0-0.1c0.1-1.2,1.1-2.1,2.3-2.1c0.1,0,0.2,0,0.3,0c1.1,0.1,2,1.2,2,2.3c0,0.1,0,0.2,0,0.3c0,0.1,0,0.1,0,0.2c-1.4,11.8-11.2,21-23,21.1H85.7z"/><defs><path id="SVGID_2_" d="M85.7,1.3C72.9,1.4,62.5,12.2,62.5,25.4v0.1h4.6v-0.1c0-5.4,2.1-10.2,5.5-13.8C76,8.1,80.7,6,86,6h0c9.6,0,17.5,7.4,18.7,17c0,0,0,0.1,0,0.1c0.1,1.2,1.1,2.1,2.3,2.1c0.1,0,0.2,0,0.3,0c1.2-0.1,2-1.2,2-2.3c0-0.1,0-0.2,0-0.3c0-0.1,0-0.1,0-0.2c-1.4-11.8-11.2-21-23-21.1H85.7z"/></defs><clipPath id="SVGID_3_"><use xlink:href="#SVGID_2_" style="overflow:visible;"/></clipPath><path fill="#FFFFFF" d="M1.2,25.5L1.2,25.5c0-2.8,2.1-5,4.9-5c1.9,0,3.1,0.8,4,2L8.1,24c-0.5-0.7-1.1-1.1-2-1.1c-1.3,0-2.2,1.1-2.2,2.5v0c0,1.4,0.9,2.6,2.2,2.6c1,0,1.6-0.5,2.1-1.2l2,1.4c-0.9,1.3-2.1,2.2-4.1,2.2C3.3,30.4,1.2,28.3,1.2,25.5"/><path fill="#FFFFFF" d="M10.7,25.5L10.7,25.5c0-2.8,2.2-5,5-5s5,2.2,5,5v0c0,2.8-2.2,5-5,5C12.8,30.4,10.7,28.2,10.7,25.5 M18.1,25.5L18.1,25.5c0-1.4-1-2.6-2.4-2.6c-1.4,0-2.4,1.2-2.4,2.6v0c0,1.4,1,2.6,2.4,2.6C17.1,28,18.1,26.8,18.1,25.5"/><path fill="#FFFFFF" d="M23.9,27c0.1,1.1,0.7,1.5,1.7,1.5c0.7,0,1.5-0.3,1.5-1c0-0.8-1.3-1-2.6-1.4c-1.3-0.4-2.7-1-2.7-2.7c0-2.1,2-2.9,3.8-2.9c1.8,0,3.7,0.9,3.7,3.1h-2.4c0-0.9-0.8-1.1-1.5-1.1c-0.5,0-1.2,0.2-1.2,0.8c0,0.7,1.3,0.9,2.7,1.3c1.3,0.4,2.7,1,2.7,2.7c0,2.4-2,3.2-4,3.2c-2.1,0-4-1-4-3.4H23.9z"/><path fill="#FFFFFF" d="M33.9,20.5h2.5l4,9.7h-2.8l-0.7-1.7h-3.6l-0.7,1.7h-2.7L33.9,20.5z M36.2,26.4l-1-2.7l-1.1,2.7H36.2z"/><path fill="#FFFFFF" d="M41.3,20.6h4c2.4,0,3.9,1.3,3.9,3.4v0c0,2.3-1.7,3.5-4,3.5h-1.3v2.8h-2.6V20.6z M45.1,25.4c0.9,0,1.5-0.5,1.5-1.3v0c0-0.8-0.6-1.3-1.5-1.3h-1.2v2.5H45.1z"/><rect x="50.3" y="20.6" fill="#FFFFFF" width="2.6" height="9.6"/></svg>