<svg xmlns="http://www.w3.org/2000/svg" viewBox="0 0 104.73 104.73"><defs><style>.cls-1{fill:#fff;}</style></defs><title>Recurso 10laptop</title><g id="Capa_2" data-name="Capa 2"><g id="Capa_1-2" data-name="Capa 1"><path class="cls-1" d="M70.77,65.25a2,2,0,0,0-2,2V81.41A10.24,10.24,0,0,1,58.5,91.64H36.42a2,2,0,0,0-2.05,2v4.07l-4.89-4.89a2,2,0,0,0-1.87-1.22H14.32A10.24,10.24,0,0,1,4.09,81.41V49.91A10.24,10.24,0,0,1,14.32,39.68H35a2,2,0,0,0,0-4.09H14.32A14.33,14.33,0,0,0,0,49.91v31.5A14.34,14.34,0,0,0,14.32,95.73H26.56l8.4,8.4a2.06,2.06,0,0,0,1.45.6,2,2,0,0,0,.78-.16,2.05,2.05,0,0,0,1.26-1.89v-7h20A14.34,14.34,0,0,0,72.82,81.41V67.29A2.05,2.05,0,0,0,70.77,65.25Z"/><path class="cls-1" d="M90.4,50.22a2.06,2.06,0,0,0-.81,1.64v7.89l-5-5a2,2,0,0,0-1.44-.6,2.08,2.08,0,0,0-.6.09A25.6,25.6,0,0,1,75,55.37H69.82a25.64,25.64,0,0,1,0-51.28H75a25.67,25.67,0,0,1,25.64,25.64A25.42,25.42,0,0,1,90.4,50.22ZM75,0H69.82a29.73,29.73,0,1,0,0,59.46H75a29.81,29.81,0,0,0,7.54-1l7.65,7.64a2,2,0,0,0,1.45.6,2.12,2.12,0,0,0,.78-.15,2.06,2.06,0,0,0,1.26-1.89V52.85a30,30,0,0,0,7.82-9.63,29.45,29.45,0,0,0,3.23-13.49A29.77,29.77,0,0,0,75,0Z"/><path class="cls-1" d="M81.62,22.38a8.66,8.66,0,0,0-17.3.61,2,2,0,1,0,4.09,0,4.57,4.57,0,0,1,4.9-4.56,4.57,4.57,0,0,1,.67,9,3.86,3.86,0,0,0-3,3.79v4.92a2,2,0,0,0,4.09,0V31.41A8.62,8.62,0,0,0,81.62,22.38Z"/><path class="cls-1" d="M74.43,42.8a2.05,2.05,0,1,0,.6,1.45A2.07,2.07,0,0,0,74.43,42.8Z"/><path class="cls-1" d="M56.25,63.41H13.09a2,2,0,0,0,0,4.09H56.25a2,2,0,0,0,0-4.09Z"/><path class="cls-1" d="M57.7,75.46a2.05,2.05,0,0,0-3.5,1.45,2,2,0,0,0,.6,1.44,2.05,2.05,0,0,0,2.9,0,2,2,0,0,0,.59-1.44A2.06,2.06,0,0,0,57.7,75.46Z"/><path class="cls-1" d="M48.2,74.86H13.09a2,2,0,0,0,0,4.09H48.2a2,2,0,1,0,0-4.09Z"/><path class="cls-1" d="M43,52H13.09a2,2,0,0,0,0,4.09H43A2,2,0,1,0,43,52Z"/></g></g></svg>